<?xml version="1.0" encoding="UTF-8"?>
<svg id="_레이어_2" data-name="레이어 2" xmlns="http://www.w3.org/2000/svg" viewBox="0 0 580 580">
  <defs>
    <style>
      .cls-1 {
        fill: #fff;
      }

      .cls-2 {
        fill: #fe8179;
      }

      .cls-3 {
        opacity: .2;
      }

      .cls-4 {
        fill: #302257;
      }

      .cls-5 {
        fill: #ff444d;
      }

      .cls-6 {
        fill: #ff434d;
      }

      .cls-7 {
        fill: #f9cac1;
      }

      .cls-8 {
        fill: #342352;
      }

      .cls-9 {
        fill: #6da7c1;
      }

      .cls-10 {
        fill: #ff8179;
      }

      .cls-11 {
        fill: #fe434d;
      }

      .cls-12 {
        fill: none;
      }

      .cls-13 {
        fill: #37234e;
      }

      .cls-14 {
        fill: #ffd0be;
      }

      .cls-15 {
        fill: #febb9e;
      }

      .cls-16 {
        fill: #372648;
      }

      .cls-17 {
        fill: #fdd6c2;
      }

      .cls-18 {
        fill: #362350;
      }
    </style>
  </defs>
  <g id="_레이어_1-2" data-name="레이어 1">
    <g>
      <path class="cls-9" d="m544.71,238.22l-254.71,193.52-.05-.04-.11,87.61-.02.02L28.62,320.87c10.68,135.02,123.62,241.26,261.38,241.26,144.82,0,262.22-117.4,262.22-262.22,0-29.86-5-58.54-14.19-85.28l-.17.08c2.64,7.68,4.93,15.51,6.86,23.49Z"/>
      <path class="cls-15" d="m57.61,178.39c1.33-2.54,2.7-5.05,4.11-7.54l228.1,173.31V37.7c-100.88.07-188.41,57.11-232.21,140.68Z"/>
      <path class="cls-2" d="m522.02,178.39c-1.33-2.54-2.7-5.05-4.11-7.54l-228.1,173.31V37.7c100.88.07,188.41,57.11,232.21,140.68Z"/>
      <path class="cls-11" d="m289.84,519.31l.11-87.67-.14.1L35.1,238.22c-4.77,19.79-7.32,40.45-7.32,61.7,0,7.05.29,14.04.83,20.95l261.2,198.45.02-.02Z"/>
      <path class="cls-6" d="m289.81,431.6v-87.59s.19.14.19.14l228.1-173.31c11.81,20.85,20.84,43.47,26.61,67.37l-254.71,193.52-.19-.14Z"/>
      <path class="cls-13" d="m290,19.92C135.36,19.92,10,145.28,10,299.92s125.36,280,280,280,280-125.36,280-280S444.64,19.92,290,19.92Zm0,542.22c-144.82,0-262.22-117.4-262.22-262.22S145.18,37.7,290,37.7s262.22,117.4,262.22,262.22-117.4,262.22-262.22,262.22Z"/>
      <path class="cls-10" d="m290,431.6v-87.59l-.19.14L61.71,170.85c-11.81,20.85-20.84,43.47-26.61,67.37l254.71,193.52.19-.14Z"/>
      <path class="cls-1" d="m465.12,435.32c.42-1.6,9.34-37.83-28.77-60.54-4.56-2.72-7.4-7.81-7.43-13.3-.02-5.17-2.37-16.13-17.89-31.54-2.03-2.01-3.74-4.22-5.07-6.54-2.72-4.72-10.2-16.63-20.9-25.25-4.07-3.28-6.83-8.01-7.75-13.33-1.34-7.71-4.81-22.43-13.06-34.35-2.66-3.86-4.07-8.34-4.07-12.98v-60.71c0-4.32-.81-8.54-2.42-12.54l-5.24-13.1c-1.48-3.69-2.23-7.58-2.23-11.56v-27.4c0-10.88-3.98-21.35-11.2-29.49l-6.17-6.96-5.79,4.81c-.2.11-.39.19-.58.25-.06.02-.13.03-.19.05-.13.03-.25.06-.38.08-.07,0-.15,0-.22.01-.11,0-.23,0-.34,0-.07,0-.15-.02-.22-.03-.11-.02-.21-.04-.32-.06-.07-.02-.14-.04-.21-.06-.1-.03-.2-.07-.31-.11-.07-.03-.13-.05-.2-.09-.1-.05-.2-.11-.3-.16-.06-.03-.12-.06-.17-.1-.11-.07-.22-.15-.33-.23-.04-.03-.08-.05-.11-.08-.14-.11-.28-.23-.42-.35-.03-.03-.06-.06-.09-.09-.1-.09-.2-.19-.29-.28-.05-.05-.09-.09-.13-.14-.07-.08-.14-.15-.21-.23-.04-.05-.09-.1-.13-.15-.06-.07-.12-.14-.18-.21-.04-.05-.08-.1-.11-.14-.05-.07-.1-.13-.15-.2-.03-.04-.06-.08-.09-.12-.05-.06-.09-.12-.13-.18-.02-.03-.05-.07-.07-.1-.04-.06-.07-.1-.1-.15-.01-.02-.03-.05-.04-.07,0,0,0,0,0-.01,0,0,0,0,0,0-.07-.11-.11-.18-.11-.18.08-.21.16-.44.24-.66.06-.18.13-.36.19-.54.06-.19.11-.39.17-.58.05-.19.11-.38.16-.57.05-.2.09-.4.14-.61.05-.2.09-.4.13-.6.04-.21.08-.42.11-.63.04-.21.08-.41.11-.62.03-.21.06-.43.09-.65.03-.21.06-.42.08-.64.03-.22.05-.45.07-.67.02-.22.04-.43.06-.65.02-.23.03-.46.05-.69.01-.22.03-.44.04-.66.01-.23.02-.47.03-.7,0-.22.02-.44.02-.67,0-.24,0-.48,0-.72,0-.22,0-.44,0-.67,0-.24,0-.48-.01-.72,0-.22,0-.45-.01-.67,0-.24-.02-.49-.03-.73,0-.22-.02-.44-.03-.66-.01-.24-.03-.48-.04-.73-.01-.22-.02-.44-.04-.67-.02-.24-.04-.47-.05-.71-.02-.22-.03-.45-.05-.67-.02-.23-.04-.46-.06-.69-.02-.22-.04-.45-.06-.67-.02-.23-.05-.45-.07-.67-.02-.22-.05-.45-.07-.67-.03-.23-.06-.46-.08-.68-.03-.21-.05-.42-.08-.63-.03-.23-.06-.46-.09-.69-.03-.2-.05-.4-.08-.6-.03-.22-.06-.44-.1-.65-.03-.2-.06-.39-.09-.59-.03-.22-.07-.43-.1-.65-.03-.18-.06-.37-.09-.55-.03-.21-.07-.41-.1-.61-.03-.18-.06-.36-.09-.53-.03-.19-.07-.38-.1-.57-.03-.17-.06-.35-.09-.52-.04-.19-.07-.38-.11-.57-.03-.15-.06-.31-.09-.46-.03-.18-.07-.34-.1-.52-.03-.15-.06-.3-.09-.45-.03-.16-.06-.31-.1-.46-.03-.14-.06-.28-.09-.41-.04-.17-.07-.32-.1-.48-.02-.11-.05-.22-.07-.32-.03-.16-.07-.3-.1-.45-.02-.09-.04-.18-.06-.26-.03-.14-.06-.27-.09-.4-.02-.07-.04-.15-.05-.22-.22-.95-.36-1.49-.36-1.49-.1-.44-.21-.88-.33-1.32-.04-.15-.09-.3-.13-.45-.09-.29-.17-.58-.27-.86-.06-.18-.12-.35-.18-.53-.09-.27-.2-.53-.3-.8-.07-.17-.13-.35-.2-.52-.07-.17-.15-.34-.22-.51-.14-.32-.28-.65-.43-.97-.06-.13-.12-.26-.19-.38-.16-.34-.33-.67-.5-1-.06-.11-.12-.21-.17-.32-.19-.35-.38-.7-.58-1.05-.05-.08-.1-.16-.14-.25-.22-.37-.43-.74-.66-1.11-.03-.05-.07-.1-.1-.15-3-4.8-6.98-9.23-10.71-12.83,0,0-.01-.01-.02-.02-.31-.3-.62-.6-.93-.89-.03-.03-.07-.07-.1-.1-.29-.27-.58-.54-.87-.8-.05-.04-.1-.09-.15-.13-.28-.25-.55-.5-.82-.74-.06-.05-.11-.1-.17-.15-.26-.23-.52-.46-.77-.68-.06-.06-.13-.11-.19-.17-.24-.21-.48-.41-.71-.61-.07-.06-.15-.13-.22-.19-.22-.19-.44-.37-.66-.55-.08-.06-.15-.13-.23-.19-.21-.17-.41-.34-.61-.5-.08-.06-.16-.13-.23-.19-.19-.15-.37-.3-.55-.44-.08-.06-.16-.13-.24-.19-.17-.13-.33-.26-.49-.39-.08-.06-.16-.13-.24-.19-.15-.12-.3-.23-.44-.34-.07-.06-.14-.11-.21-.17-.13-.1-.26-.2-.38-.29-.07-.05-.14-.11-.21-.16-.12-.09-.23-.17-.33-.25-.06-.04-.11-.09-.17-.13-.1-.07-.19-.14-.27-.2-.06-.04-.11-.08-.17-.12-.07-.05-.13-.1-.19-.14-.05-.04-.1-.07-.14-.1-.03-.02-.05-.03-.07-.05-.18-.13-.42-.1-.57.06-.24.27-.47.55-.7.82-.26.3-.52.6-.77.91-.26.32-.51.63-.76.95-.24.3-.49.6-.72.9-.24.31-.48.63-.71.94-.22.3-.45.6-.67.89-.23.31-.44.62-.66.94-.21.29-.42.59-.62.88-.21.31-.41.62-.61.92-.19.29-.39.59-.58.88-.2.31-.38.61-.57.92-.18.29-.36.58-.53.86-.18.31-.35.61-.53.91-.16.28-.33.56-.48.84-.17.3-.32.6-.48.89-.15.28-.3.56-.45.83-.15.29-.29.58-.44.87-.14.27-.28.55-.41.82-.14.29-.27.58-.4.86-.12.26-.25.53-.37.79-.13.29-.25.56-.37.85-.11.26-.23.52-.33.77-.11.28-.22.55-.33.82-.1.25-.21.51-.3.76-.1.27-.2.53-.29.8-.09.24-.18.49-.27.73-.09.26-.18.52-.27.78-.08.23-.16.47-.24.7-.08.25-.16.5-.23.75-.07.23-.14.45-.21.68-.07.25-.14.49-.21.73-.06.22-.13.44-.18.65-.06.24-.12.47-.18.7-.05.2-.11.41-.16.61-.06.23-.1.45-.15.67-.04.2-.09.39-.13.59-.05.22-.09.43-.13.64-.04.18-.08.37-.11.55-.04.21-.07.41-.11.61-.03.17-.06.35-.09.51-.03.2-.06.39-.09.58-.02.15-.05.32-.07.47-.03.19-.05.36-.07.54-.02.15-.04.3-.06.44-.02.17-.04.33-.06.49-.02.13-.03.27-.05.4-.02.15-.03.29-.04.43-.01.13-.03.26-.04.39-.01.14-.02.26-.03.4,0,.11-.02.23-.03.34,0,.13-.01.25-.02.37,0,.09-.01.19-.02.28,0,.14-.01.27-.01.39,0,.05,0,.11,0,.16,0,.11,0,.19,0,.29,0,.06,0,.12,0,.18,0,.11,0,.2,0,.29,0,.02,0,.05,0,.07,0,.32.01.48.01.48,0,.86.03,1.71.08,2.56,0,.17.02.35.03.52.05.81.13,1.62.22,2.41.02.14.04.28.05.42.09.74.2,1.47.32,2.19.02.11.03.21.05.32.14.77.29,1.54.46,2.29.04.16.07.33.11.49.17.75.35,1.49.55,2.21.02.06.04.13.05.19.19.69.39,1.36.6,2.02.04.13.08.27.13.4.22.68.45,1.35.69,2,.05.13.1.26.14.39.23.62.46,1.23.7,1.82.02.05.04.1.06.16.26.62.52,1.23.78,1.82.06.13.11.25.17.38.26.57.52,1.13.78,1.67.04.08.07.15.11.23.24.49.48.97.72,1.43.04.08.09.17.13.26.26.49.51.96.76,1.41.05.09.11.19.16.28.25.45.5.88.74,1.28,0,0,0,0,0,0,.24.41.47.79.7,1.15.05.07.09.15.14.22.21.34.42.66.61.95.03.05.06.1.1.15.18.27.34.52.5.74.73,1.07,1.19,1.65,1.19,1.65l-1.12-1.12c-.11.23-.39.38-.6.18-12.39-11.54-23.09-2.5-23.09-2.5-5.95,4.6-6.63,12.35-6.63,12.35l-.34,4.6c-1.57,7.3-15.05,16.06-15.05,16.06-10.89,7.64-21.04,2.02-21.04,2.02-4.79-2.47-8.38-2.4-8.38-2.4-9.88.3-15.57,6.59-15.57,6.59-17.97,2.1-36.79,13.18-36.79,13.18-11.37,5.62-16.98,11.09-18.23,12.39-.17.17-.31.36-.43.56-.21.36-.39.74-.55,1.12-.05.12-.11.24-.15.37-.12.3-.21.62-.3.93-.07.24-.13.48-.18.72-.19.87-.3,1.75-.3,2.64v3.98c0,1.81.26,3.62.89,5.31,3.53,9.53,12.74,12.93,17.29,14.06v.96c0,.53.01,1.05.04,1.55l2.08.62c.35.09,10.23,2.6,20.59-8.12l2.35-1.59c1.46-1.12,3.25-3.77,3.25-3.77,1.98,1.91,2.28,9.92.57,12.08-6.4,8.08-14.96,10.95-20.82,11.52,6.47,9.87,22.23,10.94,23.33,11,14.1.15,21.5-2.87,24.04-4.18,2.12-1.09,4.57-1.36,6.89-.75,14.18,3.71,47.35,3.35,47.69,3.35,2.78-.03,5.02,2.17,5.05,4.93.03,2.76-2.17,5.02-4.93,5.05-.61,0-7.15.08-15.64-.17l-2.57,57.97c-1.06,14.57-7.16,21.9-7.85,22.69-7.95,9.39-8.32,15.18-8.33,16l.09.43-.07.15v11.79c0,12.49-8.04,20-9.36,21.16-9.68,9.1-16.2,17.76-16.26,17.84l-.1.13c-3.02,3.77-3.25,7.81-3.25,7.85l-.27,11.73,1.47,2.62c1.74,3.1,1.52,6.97-.55,9.86l-5.08,7.08c-8.41,10.2-8.59,18.04-8.59,18.37v6c0,8.71,8.27,24.93,11.46,30.44l8.93,15.73c.77,1.35,1.18,2.89,1.18,4.45v18.39l9.18,13.64c1.04,1.55,1.59,3.35,1.59,5.22v12.21l.79-.69,41.09,22.06,67.07-51.08,58.69,9.15,74.24-59.3c-.95-1.19-1.36-2.8-.94-4.39Z"/>
      <path class="cls-17" d="m245.26,258.4s55.83-31.58,60.62-82.56c0,0-33.58,30.01-58.37,33.48l-2.25,49.08Z"/>
      <path class="cls-5" d="m219.19,528.95c-2.76,0-4.99-2.23-4.99-4.99v-16.4l-9.09-13.51c-1.11-1.65-1.69-3.56-1.69-5.54v-18.14l-8.78-15.47c-1.29-2.23-12.78-22.46-12.78-35.4v-5.99c-.02-1.09.13-11.64,10.76-24.6l4.49-6.27-1.3-2.31c-.82-1.47-1.24-3.14-1.2-4.83l.27-11.96c.02-.76.34-7.38,5.38-13.72.69-.92,7.4-9.71,17.45-19.15l.25-.22c.21-.18,5.88-5.1,5.88-13.58v-11.55c-.19-2.4.1-10.8,10.73-23.34.07-.08,4.62-5.63,5.45-16.83l2.78-62.7c.12-2.75,2.37-3.16,5.12-3.03,2.75.12,4.97.72,4.85,3.47l-2.79,62.92c-1.06,14.57-7.16,21.9-7.85,22.69-7.95,9.39-8.32,15.18-8.33,16l.09.43-.07.15v11.79c0,12.49-8.04,20-9.36,21.16-9.68,9.1-16.2,17.76-16.26,17.84l-.1.13c-3.02,3.77-3.25,7.81-3.25,7.85l-.27,11.73,1.47,2.62c1.74,3.1,1.52,6.97-.55,9.86l-5.08,7.08c-8.41,10.2-8.59,18.04-8.59,18.37v6c0,8.71,8.27,24.93,11.46,30.44l8.93,15.73c.77,1.35,1.18,2.89,1.18,4.45v18.39l9.18,13.64c1.04,1.55,1.59,3.35,1.59,5.22v16.6c0,2.76-2.23,4.99-4.99,4.99Z"/>
      <path class="cls-5" d="m180.8,170.34c-10.36,10.72-20.23,8.21-20.59,8.12l-7.76-2.31,1.42,7.97c4.25,23.88,33.98,25.4,35.25,25.45h.15c.4,0,.79.01,1.18.01,14.93,0,23.59-3.23,27.52-5.23,15.52,4.02,48.83,3.67,50.24,3.65,2.76-.03,4.96-2.29,4.93-5.05-.03-2.76-2.28-4.96-5.05-4.93-.34,0-33.5.36-47.69-3.35-2.32-.61-4.77-.34-6.89.75-2.54,1.31-9.94,4.33-24.04,4.18-1.1-.06-16.85-1.13-23.33-11,5.86-.58,14.42-3.44,20.82-11.52,1.71-2.16,1.41-10.16-.57-12.08,0,0-1.79,2.65-3.25,3.77l-2.35,1.59Z"/>
      <path class="cls-4" d="m260.87,139.45c-2.98,1.71-6.43,2.69-10.11,2.69s-7.13-.99-10.11-2.69h-16.81c5.76,8.74,15.66,14.51,26.92,14.51s21.15-5.77,26.92-14.51h-16.81Z"/>
      <path class="cls-16" d="m161.21,180.83c-.19,0-.38,0-.57,0l-.46-.03c-.7-.08-17.18-2.07-23.48-16.38-1.18-2.67-1.77-5.64-1.77-8.81v-3.63c0-3.17.83-6.18,2.4-8.7,2.37-3.79,5.14-6.05,8.25-6.71,2.63-.76,7.66-.93,11.77,2.8l.77.7.43.95c.68,1.51,1,3.95-.12,6.28-.77,1.61-2.52,3.75-6.41,4.77-.91.26-3.93.99-7.1.43v3.12c0,1.78.31,3.4.93,4.8,3.66,8.33,13.72,10.21,15.27,10.45.03,0,.07,0,.1,0,12.48,0,16.5-10.86,16.67-11.33.92-2.58,3.76-3.96,6.35-3.05,2.59.9,3.97,3.71,3.09,6.3-2.14,6.3-10.33,18.06-26.1,18.06Z"/>
      <path class="cls-5" d="m469.95,441.6c-.43,0-.86-.06-1.3-.17-2.66-.71-4.24-3.44-3.53-6.1.42-1.6,9.34-37.83-28.77-60.54-4.56-2.72-7.4-7.81-7.43-13.3-.02-5.17-2.37-16.13-17.89-31.54-2.03-2.01-3.74-4.22-5.07-6.54-2.72-4.72-10.2-16.63-20.9-25.25-4.07-3.28-6.83-8.01-7.75-13.33-1.34-7.71-4.81-22.43-13.06-34.35-2.66-3.86-4.07-8.34-4.07-12.98v-60.71c0-4.32-.81-8.54-2.42-12.54l-5.24-13.1c-1.48-3.69-2.23-7.58-2.23-11.56v-27.4c0-10.88-3.98-21.35-11.2-29.49l-12.25-13.81c-1.83-2.06-1.64-5.22.42-7.04,2.06-1.83,3.01-4.13,4.84-2.07l14.46,16.3c8.84,9.97,13.71,22.79,13.71,36.12v27.4c0,2.7.51,5.34,1.51,7.85l5.24,13.1c2.08,5.19,3.13,10.66,3.13,16.25v60.71c0,2.6.8,5.12,2.3,7.3,9.33,13.5,13.2,29.8,14.68,38.32.51,2.92,1.99,5.5,4.17,7.26,11.59,9.33,19.57,21.58,23.29,28.05.9,1.56,2.06,3.05,3.46,4.44,17.16,17.04,20.8,30.39,20.83,38.58,0,2.04.96,3.82,2.56,4.77,23.32,13.9,31.17,32.59,33.64,45.82,2.68,14.35-.21,25.41-.33,25.87-.6,2.23-2.61,3.7-4.82,3.7Z"/>
      <path class="cls-1" d="m191.12,57.48s-10.11-15.5-2.25-40.87c0,0,16.39,10.11,20.66,18.86,0,0-8.76,5.84-8.08,17.07l-10.33,4.94Z"/>
      <path class="cls-14" d="m196.18,51.08c-2.25-1.57-4.83-6.18-4.83-6.18-5.46-9.66-2.47-28.3-2.47-28.3-7.86,25.38,2.25,40.87,2.25,40.87l10.33-4.94c-2.92.45-5.28-1.46-5.28-1.46Z"/>
      <path class="cls-7" d="m285.07,70.51c4.04-16.47.6-28.3.6-28.3-1.8-5.54-1.33-17.96-1.33-17.96-8.14,14.53-7.5,26.05-7.5,26.05,1.5,15.57,8.23,20.21,8.23,20.21Z"/>
      <path class="cls-18" d="m291.48,40.15s-1.7-4.53-4.39-5.87c0,0-3.44-1.65-1.5,7.19,0,0,1.32,6.44.74,10.48,0,0,1.07,14.65-1.25,18.57,0,0-6.16-4.25-8.01-18.25h0s-2.17,10.83,3.37,22.4c0,0,3.59,6.18,8.23,9.62,0,0,4.49,3.44,7.04,4.94,0,0,5.96-24.54-4.22-49.07Z"/>
      <path class="cls-5" d="m336.83,68.91c-.07-.03-.13-.08-.17-.14-3.79-5.34-6-16.33-6.07-16.66,0-.01,0-.01,0-.02-2.25-8.38-6.73-18.85-6.73-18.85-7.02-17.42-28.28-31.41-30.88-33.07-.16-.1-.36-.1-.51.01-6.68,4.99-13.79,17.27-15.12,19.64-.12.22-.41.28-.62.14-6.78-4.28-13.51-2.45-13.51-2.45-12.29,1.78-18.98,12.02-20.06,13.81-.1.16-.28.24-.47.2-7.4-1.58-15.26-1.73-15.26-1.73-8.16,0-11.51,1.25-12.52,1.75-.21.1-.45.03-.58-.16-7.26-11.95-25.1-20.68-27.51-21.82-.17-.08-.36-.06-.49.07-3.22,3.26-6.37,20.01-6.37,20.01-3.49,15.98,3.31,29.98,3.72,30.8.01.03.03.05.04.07l.24.31c1.02,1.34,1.18,3.15.39,4.64-.03.07-.09.12-.15.16-11.75,7.48-11.88,32.03-11.88,32.57,0,.01,0,.02,0,.03,1.14,12.87-3.46,20-3.87,20.6-.02.03-.04.05-.07.08-9.86,9.24-17.93,8.65-17.93,8.65-8.08,0-10.27,3.89-10.27,3.89-10.27,9.88,0,17.88,0,17.88h.01c.24-1.09.61-2.14,1.17-3.11.12-.21.27-.41.45-.58,1.24-1.3,6.85-6.77,18.23-12.39,0,0,18.83-11.08,36.79-13.18,0,0,5.69-6.29,15.57-6.59,0,0,3.59-.07,8.38,2.4,0,0,10.14,5.61,21.04-2.02,0,0,13.47-8.76,15.05-16.06l.34-4.6s.67-7.75,6.63-12.35c0,0,10.7-9.04,23.09,2.5.34.32.85-.25.58-.64-2.97-4.32-10.68-17.04-10.68-32.4,0,0-1.04-18.67,16.35-38.47.15-.17.41-.21.6-.07,2.78,2,22.54,16.67,25.87,32.11,0,0,5.77,21.9,1.42,33.34-.05.13-.04.27.04.38.56.88,3.12,4.55,6.03,2.96l9.63-8c2.6-2.16.55-3.39.05-3.63Zm-135.37-16.37l-10.33,4.94s-10.11-15.5-2.25-40.87c0,0,16.39,10.11,20.66,18.86,0,0-8.76,5.84-8.08,17.07Z"/>
      <path class="cls-3" d="m214.2,507.56l-9.09-13.51c-1.11-1.65-1.69-3.56-1.69-5.54v-18.14l-8.78-15.47c-1.29-2.23-12.78-22.46-12.78-35.4v-5.99c-.02-1.09.13-11.64,10.76-24.6l4.49-6.27-1.3-2.31c-.82-1.47-1.24-3.14-1.2-4.83l.27-11.96c.02-.76.34-7.38,5.38-13.72.69-.92,7.4-9.71,17.45-19.15l.25-.22c.21-.18,5.88-5.1,5.88-13.58v-11.55c-.19-2.4.1-10.8,10.73-23.34.07-.08,4.62-5.63,5.45-16.83l.6-13.58-85.68,73.16-41.77-6.74-59.74,40.42-24.33-31.73c4.14,40.88,17.69,78.97,38.42,112.11h0l29.02,7.52,21.56,44.32,50.31,10.78,25.15,28.75h18.57l3.42-2.76c-.85-.89-1.38-2.1-1.38-3.43v-16.4Z"/>
      <path class="cls-8" d="m508,390.62l-14.97,27.55-101.21,80.85-58.69-9.15-67.07,51.08-41.09-22.06-12.81,11.28h-18.57l-25.15-28.75-50.31-10.78-21.56-44.32-29.02-7.52h0c46.34,74.07,128.63,123.35,222.45,123.35,117.79,0,217.44-77.67,250.53-184.59h0s-32.53,13.07-32.53,13.07Z"/>
      <path class="cls-5" d="m465.51,438.85c-.06-.11-.11-.22-.15-.34-.07-.16-.13-.33-.18-.5-.05-.18-.1-.36-.13-.54-.02-.09-.03-.18-.05-.28-.03-.26-.04-.52-.03-.79,0-.06,0-.13.01-.19.02-.29.06-.59.14-.89.42-1.6,9.34-37.83-28.77-60.54-4.56-2.72-7.4-7.81-7.43-13.3-.02-5.17-2.37-16.13-17.89-31.54-2.03-2.01-3.74-4.22-5.07-6.54-2.72-4.72-10.2-16.63-20.9-25.25-4.07-3.28-6.83-8.01-7.75-13.33-.45-2.57-1.14-5.92-2.15-9.68,3.66,14.39-2.35,23.33-2.35,23.33,0,4.61-.54,9.45-.54,9.45,0,0-.45,12.92-11.1,22.78-.09.08-.18.16-.28.23-1.38.98-12.14,8.47-22.97,10.63-.15.03-.29.05-.44.05-2.52.08-26.88,1.52-31.86,25.76-.02.1-.03.2-.04.3-.21,2.25-3.37,29.35-35.1,38.5-.24.07-.49.1-.74.1,0,0-49.41,1.78-47.96,41.53,0,0-6.54,11.16-6.54,22.03v18.67l-.79,1.55,8.14,12.09c1.04,1.55,1.59,3.35,1.59,5.22v12.21l.79-.69,41.09,22.06,67.07-51.08,58.69,9.15,74.24-59.3s0,0,0,0c-.21-.27-.39-.55-.54-.85Z"/>
      <polygon class="cls-3" points="333.13 489.86 391.82 499.01 485.95 423.82 471.47 417.4 449.91 397.64 390.06 373.56 224.97 518.88 266.06 540.93 333.13 489.86"/>
    </g>
    <rect class="cls-12" width="580" height="580"/>
  </g>
</svg>